<svg width="50" height="50" viewBox="0 0 50 50" fill="none" xmlns="http://www.w3.org/2000/svg">
<g clip-path="url(#clip0_11_5)">
<path d="M44.9028 8.33348C44.7134 8.31397 44.5226 8.31397 44.3333 8.33348H5.44442C5.19518 8.33732 4.94759 8.37469 4.70831 8.44459L24.7778 28.4307L44.9028 8.33348Z" fill="#F2F5EA"/>
<path d="M46.9583 10.2637L26.7361 30.4026C26.2156 30.9199 25.5116 31.2103 24.7778 31.2103C24.0439 31.2103 23.3399 30.9199 22.8194 30.4026L2.77776 10.4164C2.71615 10.6429 2.68348 10.8762 2.68054 11.1109V38.8887C2.68054 39.6254 2.9732 40.3319 3.49413 40.8529C4.01507 41.3738 4.72161 41.6664 5.45832 41.6664H44.3472C45.0839 41.6664 45.7905 41.3738 46.3114 40.8529C46.8323 40.3319 47.125 39.6254 47.125 38.8887V11.1109C47.1139 10.8215 47.0577 10.5357 46.9583 10.2637ZM7.3611 38.8887H5.43054V36.9026L15.5278 26.8887L17.4861 28.847L7.3611 38.8887ZM44.3194 38.8887H42.375L32.25 28.847L34.2083 26.8887L44.3055 36.9026L44.3194 38.8887Z" fill="#F2F5EA"/>
</g>
<defs>
<clipPath id="clip0_11_5">
<rect width="50" height="50" fill="white"/>
</clipPath>
</defs>
</svg>
