<svg width="30" height="30" viewBox="0 0 30 30" fill="none" xmlns="http://www.w3.org/2000/svg">
<path d="M23.8789 1.87901C24.1545 1.58769 24.4856 1.35458 24.8528 1.19343C25.22 1.03229 25.6158 0.946387 26.0167 0.940811C26.4177 0.935235 26.8157 1.0101 27.1872 1.16097C27.5587 1.31184 27.8962 1.53566 28.1798 1.8192C28.4633 2.10274 28.6871 2.44025 28.838 2.81177C28.9889 3.18329 29.0637 3.58129 29.0581 3.98224C29.0526 4.38319 28.9667 4.77895 28.8055 5.14613C28.6444 5.51331 28.4113 5.84446 28.1199 6.12001L19.3299 14.91C19.3183 14.9216 19.3091 14.9354 19.3028 14.9506C19.2965 14.9658 19.2932 14.9821 19.2932 14.9985C19.2932 15.015 19.2965 15.0312 19.3028 15.0464C19.3091 15.0616 19.3183 15.0754 19.3299 15.087L28.1199 23.877C28.4023 24.1547 28.6268 24.4856 28.7807 24.8505C28.9345 25.2154 29.0145 25.6072 29.0162 26.0032C29.0179 26.3992 28.9411 26.7917 28.7903 27.1579C28.6396 27.5241 28.4178 27.8568 28.1378 28.1369C27.8578 28.4169 27.5251 28.6388 27.159 28.7896C26.7928 28.9405 26.4004 29.0173 26.0044 29.0158C25.6083 29.0142 25.2166 28.9342 24.8516 28.7805C24.4866 28.6268 24.1557 28.4023 23.8779 28.12L15.0879 19.33C15.0763 19.3184 15.0625 19.3091 15.0474 19.3028C15.0322 19.2965 15.0159 19.2933 14.9994 19.2933C14.983 19.2933 14.9667 19.2965 14.9515 19.3028C14.9364 19.3091 14.9226 19.3184 14.9109 19.33L6.12095 28.12C5.84324 28.4023 5.51238 28.6269 5.14746 28.7807C4.78253 28.9346 4.39076 29.0146 3.99475 29.0163C3.59873 29.0179 3.2063 28.9412 2.8401 28.7904C2.4739 28.6396 2.14117 28.4179 1.86111 28.1379C1.58105 27.8579 1.35919 27.5252 1.20834 27.159C1.05749 26.7929 0.980635 26.4004 0.982201 26.0044C0.983767 25.6084 1.06373 25.2166 1.21746 24.8517C1.3712 24.4867 1.59568 24.1558 1.87795 23.878L10.6679 15.088C10.6796 15.0764 10.6888 15.0626 10.6951 15.0474C10.7014 15.0322 10.7047 15.016 10.7047 14.9995C10.7047 14.9831 10.7014 14.9668 10.6951 14.9516C10.6888 14.9364 10.6796 14.9226 10.6679 14.911L1.87795 6.12101C1.32284 5.55692 1.01312 4.79633 1.01625 4.00492C1.01938 3.21351 1.3351 2.45539 1.89465 1.89571C2.45421 1.33603 3.21225 1.02012 4.00366 1.01681C4.79507 1.01349 5.55573 1.32304 6.11995 1.87801L14.9099 10.668C14.9216 10.6797 14.9354 10.6889 14.9505 10.6952C14.9657 10.7015 14.982 10.7047 14.9984 10.7047C15.0149 10.7047 15.0312 10.7015 15.0464 10.6952C15.0615 10.6889 15.0753 10.6797 15.0869 10.668L23.8769 1.87801L23.8789 1.87901Z" fill="white"/>
</svg>
