<svg width="25" height="25" viewBox="0 0 25 25" fill="none" xmlns="http://www.w3.org/2000/svg">
<path d="M0 12.5C0 15.8152 1.31696 18.9946 3.66117 21.3388C6.00537 23.683 9.18479 25 12.5 25C15.8152 25 18.9946 23.683 21.3388 21.3388C23.683 18.9946 25 15.8152 25 12.5C25 9.18479 23.683 6.00537 21.3388 3.66117C18.9946 1.31696 15.8152 0 12.5 0C9.18479 0 6.00537 1.31696 3.66117 3.66117C1.31696 6.00537 0 9.18479 0 12.5H0ZM9.225 16.8797C9.15293 16.9543 9.06672 17.0138 8.97141 17.0548C8.87609 17.0957 8.77358 17.1173 8.66984 17.1182C8.56611 17.1191 8.46324 17.0993 8.36722 17.06C8.27121 17.0207 8.18398 16.9627 8.11063 16.8894C8.03728 16.816 7.97927 16.7288 7.93998 16.6328C7.9007 16.5368 7.88093 16.4339 7.88184 16.3302C7.88274 16.2264 7.90429 16.1239 7.94523 16.0286C7.98618 15.9333 8.0457 15.8471 8.12031 15.775L14.5203 9.375H10.1953C9.98811 9.375 9.7894 9.29269 9.64289 9.14618C9.49637 8.99966 9.41406 8.80095 9.41406 8.59375C9.41406 8.38655 9.49637 8.18784 9.64289 8.04132C9.7894 7.89481 9.98811 7.8125 10.1953 7.8125H16.4062C16.6135 7.8125 16.8122 7.89481 16.9587 8.04132C17.1052 8.18784 17.1875 8.38655 17.1875 8.59375V14.8047C17.1875 15.0119 17.1052 15.2106 16.9587 15.3571C16.8122 15.5036 16.6135 15.5859 16.4062 15.5859C16.199 15.5859 16.0003 15.5036 15.8538 15.3571C15.7073 15.2106 15.625 15.0119 15.625 14.8047V10.4797L9.225 16.8797Z" fill="white"/>
</svg>
