<svg width="17" height="25" viewBox="0 0 17 25" fill="none" xmlns="http://www.w3.org/2000/svg">
<g clip-path="url(#clip0_9_99)">
<path d="M4.25 25.0001C6.596 25.0001 8.5 23.1334 8.5 20.8334V16.6667H4.25C1.904 16.6667 0 18.5334 0 20.8334C0 23.1334 1.904 25.0001 4.25 25.0001Z" fill="#0ACF83"/>
<path d="M0 12.4999C0 10.1999 1.904 8.33325 4.25 8.33325H8.5V16.6666H4.25C1.904 16.6666 0 14.7999 0 12.4999Z" fill="#A259FF"/>
<path d="M0 4.16667C0 1.86667 1.904 0 4.25 0H8.5V8.33333H4.25C1.904 8.33333 0 6.46667 0 4.16667Z" fill="#F24E1E"/>
<path d="M8.5 0H12.75C15.096 0 17 1.86667 17 4.16667C17 6.46667 15.096 8.33333 12.75 8.33333H8.5V0Z" fill="#FF7262"/>
<path d="M17 12.4999C17 14.7999 15.096 16.6666 12.75 16.6666C10.404 16.6666 8.5 14.7999 8.5 12.4999C8.5 10.1999 10.404 8.33325 12.75 8.33325C15.096 8.33325 17 10.1999 17 12.4999Z" fill="#1ABCFE"/>
</g>
<defs>
<clipPath id="clip0_9_99">
<rect width="17" height="25" fill="white"/>
</clipPath>
</defs>
</svg>
