<svg width="68" height="60" viewBox="0 0 68 60" fill="none" xmlns="http://www.w3.org/2000/svg">
<g clip-path="url(#clip0_10_67)">
<path d="M14.1238 0C10.2438 0 7.37269 3.76029 7.50125 7.83824C7.62477 11.7559 7.46433 16.8303 6.31072 20.9682C5.15366 25.1182 3.19653 27.7471 0 28.0847V31.8953C3.19653 32.2329 5.15366 34.8618 6.31072 39.0121C7.46433 43.15 7.62477 48.2238 7.50125 52.1418C7.37269 56.2191 10.2438 59.98 14.1243 59.98H53.8812C57.7615 59.98 60.6318 56.2197 60.5033 52.1418C60.38 48.2241 60.5402 43.15 61.6938 39.0121C62.8517 34.8621 64.8035 32.2326 68 31.8953V28.0847C64.8035 27.7471 62.8517 25.1182 61.6941 20.9682C60.5402 16.8309 60.38 11.7562 60.5033 7.83824C60.6318 3.76088 57.7615 0 53.8812 0H14.1233H14.1238ZM46.1019 36.9215C46.1019 42.5368 42.3194 45.9421 36.0421 45.9421H25.356C25.0504 45.942 24.7573 45.8075 24.5412 45.5682C24.3251 45.3288 24.2038 45.0043 24.2038 44.6659V15.3141C24.2037 15.1465 24.2335 14.9805 24.2914 14.8257C24.3493 14.6708 24.4342 14.5301 24.5412 14.4115C24.6483 14.293 24.7753 14.199 24.9152 14.1348C25.055 14.0707 25.2049 14.0376 25.3563 14.0376H35.981C41.2152 14.0376 44.6502 17.1774 44.6502 21.9974C44.6502 25.3806 42.3393 28.4094 39.3954 28.9397V29.1165C43.4034 29.6032 46.1019 32.6765 46.1019 36.9215ZM34.8766 18.0832H28.7839V27.6126H33.9158C37.8826 27.6126 40.0703 25.8438 40.0703 22.6821C40.0703 19.7194 38.1892 18.0832 34.8768 18.0832H34.8766ZM28.7839 31.3938V41.8953H35.101C39.231 41.8953 41.4192 40.0603 41.4192 36.6115C41.4192 33.1621 39.1701 31.3932 34.8354 31.3932H28.7839V31.3938Z" fill="#7E13F8"/>
</g>
<defs>
<clipPath id="clip0_10_67">
<rect width="68" height="60" fill="white"/>
</clipPath>
</defs>
</svg>
