<svg width="22" height="21" viewBox="0 0 22 21" fill="none" xmlns="http://www.w3.org/2000/svg">
<g clip-path="url(#clip0_9_94)">
<path d="M0.713962 -0.000181803C0.611081 -0.0015891 0.509156 0.020847 0.415346 0.0655508C0.321535 0.110255 0.238114 0.176142 0.17094 0.258586C0.103767 0.34103 0.0544693 0.438031 0.0265108 0.542777C-0.00144777 0.647524 -0.0073897 0.757475 0.00910227 0.864909L3.00136 20.0806C3.03863 20.3158 3.15304 20.5295 3.32449 20.6843C3.49594 20.8391 3.71346 20.925 3.93885 20.927H18.2938C18.4628 20.9293 18.6269 20.8673 18.7562 20.7523C18.8856 20.6374 18.9716 20.4771 18.9986 20.3006L21.991 0.868636C22.0074 0.761208 22.0015 0.651269 21.9735 0.546538C21.9455 0.441808 21.8962 0.344826 21.829 0.262402C21.7618 0.179977 21.6784 0.114109 21.5846 0.0694213C21.4908 0.024734 21.3889 0.00231114 21.286 0.00372729L0.713962 -0.000181803ZM13.3138 13.8878H8.73202L7.49142 7.03145H14.424L13.3138 13.8878Z" fill="#2684FF"/>
<path d="M21.0212 7.02197H14.4112L13.3018 13.8729H8.72377L3.31813 20.6604C3.48947 20.8171 3.70791 20.9043 3.93439 20.9062H18.2815C18.4503 20.9085 18.6143 20.8466 18.7436 20.7318C18.8728 20.6169 18.9588 20.4567 18.9858 20.2804L21.0213 7.02197H21.0212Z" fill="url(#paint0_linear_9_94)"/>
</g>
<defs>
<linearGradient id="paint0_linear_9_94" x1="22.5497" y1="8.94051" x2="14.3296" y2="19.9739" gradientUnits="userSpaceOnUse">
<stop offset="0.18" stop-color="#0052CC"/>
<stop offset="1" stop-color="#2684FF"/>
</linearGradient>
<clipPath id="clip0_9_94">
<rect width="22" height="21" fill="white"/>
</clipPath>
</defs>
</svg>
