<svg width="68" height="60" viewBox="0 0 68 60" fill="none" xmlns="http://www.w3.org/2000/svg">
<g clip-path="url(#clip0_10_65)">
<path d="M55.9095 19.4276C55.1859 19.1816 54.4561 18.9537 53.7208 18.7441C53.8443 18.2441 53.958 17.7502 54.0589 17.2649C55.7159 9.29625 54.6327 2.87651 50.9328 0.76283C47.3854 -1.26349 41.5839 0.849409 35.7247 5.90125C35.1473 6.40002 34.5826 6.91317 34.0313 7.4402C33.6623 7.08974 33.2867 6.74609 32.9048 6.40941C26.7641 1.00783 20.609 -1.26875 16.9131 0.850988C13.3689 2.88362 12.3194 8.91862 13.8112 16.4707C13.9596 17.2187 14.1272 17.9628 14.3137 18.7023C13.4425 18.9476 12.6018 19.2086 11.7972 19.4865C4.5977 21.9734 0 25.8705 0 29.9128C0 34.0878 4.93584 38.2755 12.4344 40.8147C13.0424 41.0197 13.6553 41.2097 14.2728 41.3844C14.0723 42.1809 13.8942 42.9828 13.7389 43.7891C12.3168 51.2102 13.4273 57.1026 16.962 59.1223C20.6128 61.2081 26.7402 59.0644 32.7064 53.8973C33.1902 53.4772 33.6633 53.0452 34.1254 52.6018C34.7224 53.1724 35.3353 53.7265 35.9635 54.2634C41.743 59.1902 47.4507 61.1797 50.9819 59.1544C54.6292 57.0626 55.8147 50.7326 54.2757 43.0312C54.1544 42.4279 54.0185 41.8276 53.868 41.2307C54.2983 41.1044 54.7206 40.9744 55.1323 40.8391C62.9279 38.2805 68 34.1436 68 29.9128C68 25.8557 63.2538 21.9323 55.9095 19.4276ZM54.2188 38.1076C53.847 38.2294 53.4655 38.347 53.0767 38.4615C52.216 35.7623 51.0547 32.8923 49.6334 29.9268C50.9896 27.032 52.1063 24.1986 52.9428 21.517C53.6385 21.7165 54.3134 21.9268 54.9642 22.1486C61.2568 24.2949 65.0951 27.4678 65.0951 29.9128C65.0951 32.517 60.9498 35.8978 54.2188 38.1076ZM51.4261 43.5902C52.1066 46.9955 52.2035 50.0744 51.7528 52.4815C51.348 54.6444 50.5336 56.0863 49.5263 56.6639C47.3835 57.8928 42.8007 56.2955 37.8582 52.0818C37.2739 51.5827 36.7038 51.0675 36.1484 50.537C38.0646 48.461 39.9795 46.0476 41.8484 43.367C45.1358 43.0781 48.2415 42.6055 51.0579 41.9605C51.1936 42.5008 51.3163 43.0442 51.4261 43.5902ZM23.1827 56.4515C21.089 57.1839 19.4214 57.2049 18.4134 56.6291C16.2685 55.4036 15.3768 50.6723 16.5931 44.326C16.7376 43.5761 16.9032 42.8302 17.0895 42.0894C19.8749 42.6999 22.958 43.1389 26.253 43.4036C28.1347 46.0265 30.1049 48.4373 32.0904 50.5484C31.6685 50.9529 31.2365 51.347 30.795 51.7305C28.1565 54.0152 25.5128 55.6362 23.1827 56.4515ZM13.3742 38.0915C10.0584 36.9686 7.32009 35.5094 5.44319 33.917C3.75647 32.4863 2.90514 31.0655 2.90514 29.9128C2.90514 27.4597 6.59653 24.3307 12.7535 22.2041C13.5007 21.9462 14.2827 21.7028 15.0941 21.4744C15.9452 24.2165 17.0614 27.0836 18.4083 29.9828C17.0438 32.9249 15.9117 35.8378 15.0524 38.6123C14.4888 38.4524 13.9292 38.2787 13.3742 38.0915ZM16.6621 15.9178C15.3842 9.44757 16.2329 4.56678 18.3688 3.34178C20.6436 2.03704 25.674 3.8973 30.9761 8.56151C31.3219 8.86635 31.662 9.17737 31.9964 9.49441C30.0207 11.5962 28.0686 13.9891 26.2036 16.5965C23.0055 16.8902 19.9442 17.3618 17.1296 17.9936C16.9562 17.3058 16.8003 16.6137 16.6621 15.9181V15.9178ZM45.9943 23.0936C45.3295 21.956 44.64 20.8326 43.9264 19.7244C46.096 19.9963 48.1748 20.357 50.1269 20.7981C49.5409 22.6591 48.8105 24.6047 47.9506 26.5994C47.3221 25.418 46.6699 24.2492 45.9943 23.0936ZM34.0327 11.5512C35.3725 12.9894 36.7144 14.5949 38.0343 16.337C35.3568 16.2118 32.6748 16.2112 29.9973 16.3355C31.3185 14.6094 32.6719 13.006 34.0327 11.5512ZM21.9943 23.1134C21.3271 24.2596 20.6871 25.4212 20.0746 26.597C19.2289 24.6094 18.505 22.6549 17.914 20.7676C19.8541 20.3376 21.9231 19.986 24.0789 19.7191C23.3573 20.8341 22.6622 21.9658 21.9943 23.1131V23.1134ZM24.1408 40.3113C21.9135 40.0649 19.8135 39.7315 17.8739 39.3131C18.4742 37.392 19.214 35.396 20.0781 33.3657C20.6929 34.5425 21.3357 35.7047 22.0057 36.8515C22.6947 38.0305 23.4082 39.1852 24.1408 40.3113ZM34.1129 48.477C32.7359 47.0055 31.3626 45.3773 30.0215 43.6263C31.3236 43.6768 32.6509 43.7026 34 43.7026C35.386 43.7026 36.7561 43.6718 38.1047 43.6123C36.7806 45.3949 35.4437 47.0255 34.1129 48.477ZM47.978 33.262C48.887 35.3147 49.653 37.3002 50.2613 39.1884C48.2898 39.6341 46.1611 39.9931 43.9182 40.2597C44.6369 39.1309 45.3329 37.988 46.0057 36.8318C46.6898 35.6565 47.3474 34.4663 47.978 33.262ZM43.4895 35.3939C42.4594 37.1666 41.3715 38.9057 40.2273 40.6084C38.1548 40.7538 36.0777 40.826 34 40.8249C31.8838 40.8249 29.8254 40.7597 27.8433 40.6323C26.6693 38.9336 25.5606 37.1914 24.5196 35.4097H24.5198C23.4837 33.6373 22.5159 31.8266 21.6184 29.9815C22.5136 28.136 23.4785 26.3244 24.5111 24.5507L24.5108 24.551C25.543 22.7768 26.6429 21.0422 27.808 19.3507C29.8302 19.1991 31.904 19.1202 33.9997 19.1202H34C36.1053 19.1202 38.1817 19.1999 40.2034 19.3526C41.3568 21.0415 42.4496 22.7702 43.4799 24.5355C44.5159 26.3052 45.4936 28.108 46.4113 29.9407C45.503 31.7922 44.5285 33.6111 43.4895 35.3939ZM49.482 3.25599C51.7589 4.55704 52.6445 9.80362 51.2138 16.6839C51.1225 17.1228 51.0199 17.5699 50.9084 18.0234C48.0869 17.3781 45.0234 16.8984 41.816 16.6002C39.9476 13.9641 38.0115 11.5676 36.0679 9.49283C36.5773 9.00638 37.0988 8.53255 37.6319 8.07178C42.6522 3.74362 47.3442 2.03467 49.482 3.25599ZM34 23.897C37.3535 23.897 40.0722 26.5905 40.0722 29.9128C40.0722 33.2352 37.3535 35.9286 34 35.9286C30.6465 35.9286 27.9278 33.2352 27.9278 29.9128C27.9278 26.5905 30.6465 23.897 34 23.897Z" fill="#00D8FF"/>
</g>
<defs>
<clipPath id="clip0_10_65">
<rect width="68" height="60" fill="white"/>
</clipPath>
</defs>
</svg>
